<mxfile host="app.diagrams.net" modified="2023-03-24T07:18:31.791Z" agent="5.0 (Macintosh; Intel Mac OS X 10_15_7) AppleWebKit/537.36 (KHTML, like Gecko) Chrome/110.0.0.0 Safari/537.36" etag="ZhH1Tg2OXzG_5SbZUsxg" version="21.0.8" type="github">
  <diagram name="第 1 页" id="N2CALNT8F8_D19IIijXd">
    <mxGraphModel dx="763" dy="493" grid="1" gridSize="10" guides="1" tooltips="1" connect="1" arrows="1" fold="1" page="1" pageScale="1" pageWidth="827" pageHeight="1169" math="0" shadow="0">
      <root>
        <mxCell id="0" />
        <mxCell id="1" parent="0" />
      </root>
    </mxGraphModel>
  </diagram>
</mxfile>
